<svg width="127" height="25" viewBox="0 0 127 25" fill="none" xmlns="http://www.w3.org/2000/svg">
<path fill-rule="evenodd" clip-rule="evenodd" d="M3.10922 0.102722C4.82639 0.102722 6.21844 1.49477 6.21844 3.21194V17.8317H20.1578C21.875 17.8317 23.267 19.2237 23.267 20.9409C23.267 22.6581 21.875 24.0501 20.1578 24.0501H0V3.21194C0 1.49477 1.39205 0.102722 3.10922 0.102722Z" fill="#9ACD6A"/>
<path fill-rule="evenodd" clip-rule="evenodd" d="M108.847 3.26791C108.926 1.56337 107.614 0.111741 105.907 0.0201704C104.193 -0.0718225 102.728 1.24365 102.636 2.95836L105.736 3.12466C102.636 2.95836 102.636 2.95998 102.636 2.96163L102.636 2.96513L102.635 2.97277L102.634 2.99063L102.633 3.03652C102.631 3.07156 102.63 3.11547 102.629 3.16768C102.627 3.27201 102.626 3.41009 102.63 3.57725C102.637 3.91043 102.661 4.36578 102.726 4.9045C102.854 5.96633 103.151 7.43668 103.858 8.95346C104.573 10.4877 105.728 12.1107 107.565 13.3514C109.414 14.5996 111.758 15.3278 114.626 15.3712C117.511 15.4148 119.884 14.7319 121.764 13.4863C123.628 12.2509 124.792 10.6035 125.51 9.05351C126.22 7.52001 126.521 6.02549 126.652 4.94815C126.719 4.40098 126.744 3.93822 126.753 3.60032C126.757 3.43078 126.757 3.29098 126.755 3.18579C126.755 3.13315 126.754 3.08902 126.753 3.054L126.751 3.00833L126.75 2.99072L126.75 2.98324L126.75 2.97984C126.75 2.97823 126.75 2.97666 123.644 3.12493L126.75 2.97666C126.668 1.26144 125.211 -0.0626439 123.496 0.0192427C121.788 0.100773 120.468 1.54533 120.537 3.25084L120.538 3.27242C120.538 3.3031 120.538 3.36253 120.536 3.44646C120.532 3.6155 120.519 3.8766 120.48 4.1972C120.399 4.85537 120.223 5.6719 119.867 6.44055C119.519 7.19268 119.029 7.83862 118.328 8.30306C117.643 8.75738 116.542 9.18103 114.72 9.15347C112.88 9.12565 111.754 8.67614 111.045 8.19768C110.325 7.71173 109.836 7.05931 109.495 6.327C109.145 5.57723 108.975 4.78993 108.899 4.16075C108.862 3.85396 108.85 3.60546 108.847 3.44616C108.845 3.36709 108.846 3.31178 108.846 3.28427C108.847 3.27652 108.847 3.27104 108.847 3.26791C108.847 3.26791 108.847 3.26791 108.847 3.26791Z" fill="#9ACD6A"/>
<path fill-rule="evenodd" clip-rule="evenodd" d="M114.475 9.15314C116.192 9.15314 117.584 10.5452 117.584 12.2624V20.8064C117.584 22.5236 116.192 23.9157 114.475 23.9157C112.758 23.9157 111.366 22.5236 111.366 20.8064V12.2624C111.366 10.5452 112.758 9.15314 114.475 9.15314Z" fill="#9ACD6A"/>
<path d="M37.642 0H37.3255C34.625 0.000727365 32.0202 1.00091 30.0132 2.80781C28.0062 4.61471 26.7389 7.10048 26.4556 9.78614C26.4556 9.95227 26.4556 10.1026 26.4556 10.2687C26.5547 12.3861 27.0428 14.4672 27.8954 16.4078L28.0457 16.7401C29.3001 18.7373 31.1662 20.2758 33.366 21.1262C35.5658 21.9767 37.9815 22.0935 40.2531 21.4593C42.5247 20.8251 44.5306 19.4739 45.9718 17.6071C47.4131 15.7402 48.2125 13.4576 48.2509 11.0994V10.9333C48.2501 8.08952 47.1422 5.35779 45.1619 3.31691C43.1816 1.27603 40.4844 0.086361 37.642 0ZM37.3255 15.4664C36.4603 15.4664 35.6144 15.2098 34.895 14.7291C34.1755 14.2484 33.6148 13.5651 33.2837 12.7657C32.9525 11.9663 32.8659 11.0866 33.0347 10.238C33.2035 9.38935 33.6202 8.60982 34.232 7.99798C34.8439 7.38614 35.6234 6.96946 36.472 6.80066C37.3207 6.63185 38.2003 6.71849 38.9997 7.04962C39.7991 7.38074 40.4824 7.94148 40.9631 8.66093C41.4438 9.38037 41.7004 10.2262 41.7004 11.0915C41.7015 11.6663 41.589 12.2357 41.3695 12.7669C41.15 13.2982 40.8278 13.7809 40.4214 14.1873C40.0149 14.5938 39.5322 14.916 39.001 15.1355C38.4697 15.355 37.9004 15.4674 37.3255 15.4664Z" fill="#9ACD6A"/>
<path fill-rule="evenodd" clip-rule="evenodd" d="M25.5678 10.1903C25.5678 10.1898 25.5679 10.1893 26.7316 10.2608C27.8954 10.3323 27.8954 10.3318 27.8954 10.3314L27.8955 10.3306L27.8956 10.3296C27.8956 10.329 27.8956 10.3289 27.8956 10.329L27.8953 10.3343C27.895 10.3405 27.8945 10.3523 27.8939 10.3693C27.8928 10.4033 27.8914 10.4582 27.8911 10.5318C27.8904 10.679 27.8942 10.9002 27.9126 11.1783C27.9495 11.7366 28.0448 12.5129 28.2769 13.3756C28.742 15.105 29.7331 17.1068 31.8349 18.4668C34.0191 19.8801 36.2754 20.2668 38.1839 20.1547C40.1306 20.0403 41.6224 19.4141 42.259 18.9294C42.3164 18.8857 42.3744 18.8417 42.4331 18.7972C43.2795 18.1555 44.2555 17.4155 45.0985 16.2074C45.9848 14.937 46.7618 13.0837 46.8874 10.2099L49.2171 10.3117C49.0737 13.5928 48.1697 15.8809 47.0109 17.5417C45.95 19.0623 44.7068 20.002 43.8618 20.6407C43.7959 20.6905 43.7325 20.7384 43.6717 20.7847C42.5837 21.6132 40.6144 22.3478 38.3207 22.4826C35.9888 22.6196 33.2255 22.1441 30.568 20.4246C27.8282 18.6517 26.5843 16.061 26.025 13.9812C25.7447 12.9393 25.6304 12.0068 25.5858 11.3323C25.5634 10.9941 25.5584 10.718 25.5592 10.5221C25.5596 10.424 25.5614 10.3458 25.5634 10.2897C25.5643 10.2616 25.5653 10.239 25.5661 10.2222L25.5672 10.2013L25.5676 10.1942L25.5677 10.1914L25.5678 10.1903Z" fill="#2B3946"/>
<path d="M30.2051 23.6624C33.127 23.9481 35.227 22.0979 37.9185 20.9251C38.2112 20.7985 44.4531 20.2052 44.4531 20.2052C42.3734 22.0058 39.8444 23.2088 37.1353 23.6861C34.8441 24.1125 32.4933 24.1044 30.2051 23.6624Z" fill="#2B3946"/>
<path fill-rule="evenodd" clip-rule="evenodd" d="M77.1023 0.0157471H97.2601C98.9773 0.0157471 100.369 1.40779 100.369 3.12497C100.369 4.84214 98.9773 6.23419 97.2601 6.23419H83.3207V20.8065C83.3207 22.5236 81.9287 23.9157 80.2115 23.9157C78.4943 23.9157 77.1023 22.5236 77.1023 20.8065V0.0157471Z" fill="#9ACD6A"/>
<path fill-rule="evenodd" clip-rule="evenodd" d="M77.1023 11.9618C77.1023 10.2446 78.4943 8.85254 80.2115 8.85254H91.3346C93.0518 8.85254 94.4439 10.2446 94.4439 11.9618C94.4439 13.6789 93.0518 15.071 91.3346 15.071H80.2115C78.4943 15.071 77.1023 13.6789 77.1023 11.9618Z" fill="#9ACD6A"/>
<path fill-rule="evenodd" clip-rule="evenodd" d="M51.5654 0.0157471H71.7233C73.4404 0.0157471 74.8325 1.40779 74.8325 3.12497C74.8325 4.84214 73.4404 6.23419 71.7233 6.23419H57.7839V20.8065C57.7839 22.5236 56.3918 23.9157 54.6746 23.9157C52.9575 23.9157 51.5654 22.5236 51.5654 20.8065V0.0157471Z" fill="#9ACD6A"/>
<path fill-rule="evenodd" clip-rule="evenodd" d="M51.5654 11.9618C51.5654 10.2446 52.9575 8.85254 54.6746 8.85254H65.7978C67.515 8.85254 68.907 10.2446 68.907 11.9618C68.907 13.6789 67.515 15.071 65.7978 15.071H54.6746C52.9575 15.071 51.5654 13.6789 51.5654 11.9618Z" fill="#9ACD6A"/>
</svg>
