<svg width="22" height="22" viewBox="0 0 22 22" fill="none" xmlns="http://www.w3.org/2000/svg">
<path d="M9.7002 16.4H12.3502V12.35H16.4002V9.69995H12.3502V5.59995H9.7002V9.69995H5.6002V12.35H9.7002V16.4ZM11.0002 21.8C9.5062 21.8 8.1022 21.5165 6.7882 20.9495C5.4742 20.3825 4.3312 19.613 3.3592 18.641C2.3872 17.669 1.6177 16.526 1.0507 15.212C0.483695 13.898 0.200195 12.494 0.200195 11C0.200195 9.50168 0.484187 8.09368 1.05217 6.77593C1.62015 5.45816 2.39099 4.31189 3.36467 3.33713C4.33835 2.36234 5.48135 1.59578 6.79365 1.03745C8.10595 0.479118 9.50813 0.199951 11.0002 0.199951C12.4983 0.199951 13.9062 0.479118 15.2238 1.03745C16.5414 1.59578 17.6877 2.36245 18.6627 3.33745C19.6377 4.31245 20.4044 5.45898 20.9627 6.77703C21.521 8.09509 21.8002 9.50343 21.8002 11.002C21.8002 12.5006 21.521 13.9041 20.9627 15.2125C20.4044 16.5208 19.6378 17.6618 18.663 18.6355C17.6883 19.6092 16.542 20.38 15.2242 20.948C13.9065 21.516 12.4985 21.8 11.0002 21.8Z" fill="#1C1B1F"/>
</svg>
