<svg width="34" height="32" viewBox="0 0 34 32" fill="none" xmlns="http://www.w3.org/2000/svg">
<path d="M0.333252 32V29.2222H15.611V9.56941C14.8888 9.31941 14.2499 8.91663 13.6944 8.36108C13.1388 7.80552 12.736 7.16663 12.486 6.44441H6.30546L11.4443 18.7222C11.4258 20.0185 10.8795 21.1204 9.80546 22.0278C8.73138 22.9352 7.42582 23.3889 5.88879 23.3889C4.35177 23.3889 3.04621 22.9352 1.97213 22.0278C0.898072 21.1204 0.35178 20.0185 0.333252 18.7222L5.47213 6.44441H1.99992V3.66666H12.486C12.8194 2.69444 13.3981 1.89583 14.2221 1.27083C15.0462 0.645828 15.9721 0.333328 16.9999 0.333328C18.0277 0.333328 18.9536 0.645828 19.7777 1.27083C20.6018 1.89583 21.1805 2.69444 21.5138 3.66666H31.9999V6.44441H28.5277L33.6666 18.7222C33.6481 20.0185 33.1018 21.1204 32.0277 22.0278C30.9536 22.9352 29.6481 23.3889 28.111 23.3889C26.574 23.3889 25.2685 22.9352 24.1944 22.0278C23.1203 21.1204 22.574 20.0185 22.5555 18.7222L27.6944 6.44441H21.5138C21.2638 7.16663 20.861 7.80552 20.3055 8.36108C19.7499 8.91663 19.111 9.31941 18.3888 9.56941V29.2222H33.6666V32H0.333252ZM24.986 18.6667H31.236L28.111 11.1389L24.986 18.6667ZM2.76379 18.6667H9.01379L5.88879 11.1389L2.76379 18.6667ZM16.9999 7C17.5462 7 18.0069 6.80787 18.3819 6.42362C18.7569 6.03934 18.9444 5.58331 18.9444 5.05554C18.9444 4.50923 18.7569 4.04858 18.3819 3.67358C18.0069 3.29858 17.5462 3.11108 16.9999 3.11108C16.4721 3.11108 16.0161 3.29858 15.6319 3.67358C15.2476 4.04858 15.0555 4.50923 15.0555 5.05554C15.0555 5.58331 15.2476 6.03934 15.6319 6.42362C16.0161 6.80787 16.4721 7 16.9999 7Z" fill="black"/>
</svg>
