<svg width="27" height="26" viewBox="0 0 27 26" fill="none" xmlns="http://www.w3.org/2000/svg">
<path d="M0.104206 25.625V23.4723H11.9445V8.24131C11.3848 8.04756 10.8896 7.73541 10.4591 7.30485C10.0285 6.8743 9.71637 6.37916 9.52262 5.81944L4.88344 7.4125L8.7153 18.1333C8.70096 19.138 8.27758 19.9919 7.44517 20.6952C6.61275 21.3984 5.60095 21.75 4.40975 21.75C3.21855 21.75 2.20675 21.3984 1.37433 20.6952C0.541941 19.9919 0.118565 19.138 0.104206 18.1333L3.76392 7.8L2.17094 8.57502L1.39594 6.63752L9.52262 3.66668C9.78095 2.91321 10.2294 2.29428 10.8681 1.80991C11.5068 1.32553 12.2243 1.08335 13.0209 1.08335C13.8174 1.08335 14.535 1.32553 15.1737 1.80991C15.8123 2.29428 16.1209 2.7625 16.1209 2.7625L23.8709 0.0500183L24.5921 1.60002L22.7084 2.37502L26.5834 10.9431C26.5691 11.9477 26.1457 12.8016 25.3133 13.5049C24.4809 14.2081 23.4691 14.5597 22.2779 14.5597C21.0867 14.5597 20.0749 14.2081 19.2425 13.5049C18.4101 12.8016 17.9867 11.9477 17.9723 10.9431L21.5459 2.7625C21.5459 2.7625 16.5084 4.54938 16.5084 4.70002C16.5084 4.85066 16.5084 6.25002 15.5827 7.30485C15.1521 7.73541 14.657 8.04756 14.0973 8.24131V23.4723H25.9375V25.625H0.104206ZM19.856 10.9H24.6998L22.2779 5.06598L19.856 10.9ZM1.98788 18.0903H6.83163L4.40975 12.2563L1.98788 18.0903ZM13.0209 6.25001C13.4443 6.25001 13.8013 6.10112 14.0919 5.80332C14.3825 5.50551 14.5278 5.15209 14.5278 4.74306C14.5278 4.31967 14.3825 3.96266 14.0919 3.67204C13.8013 3.38141 13.4443 3.2361 13.0209 3.2361C12.6118 3.2361 12.2584 3.38141 11.9606 3.67204C11.6628 3.96266 11.5139 4.31967 11.5139 4.74306C11.5139 5.15209 11.6628 5.50551 11.9606 5.80332C12.2584 6.10112 12.6118 6.25001 13.0209 6.25001Z" fill="#3CC27D"/>
</svg>
