<svg width="28" height="26" viewBox="0 0 28 26" fill="none" xmlns="http://www.w3.org/2000/svg">
<path d="M14.1875 25.2222L12.632 23.8222C10.3169 21.7093 8.40295 19.8867 6.8901 18.3542C5.37728 16.8218 4.17273 15.45 3.27644 14.2389C2.38013 13.0278 1.75235 11.9259 1.3931 10.9333C1.03384 9.94074 0.854202 8.93333 0.854202 7.9111C0.854202 5.87919 1.53568 4.18233 2.89864 2.8205C4.26161 1.45868 5.9505 0.777771 7.9653 0.777771C9.19495 0.777771 10.3431 1.05925 11.4098 1.6222C12.4764 2.18518 13.4024 2.99259 14.1875 4.04444C15.0616 2.94815 16.0209 2.12963 17.0653 1.58887C18.1098 1.04814 19.2246 0.777771 20.4098 0.777771C22.4246 0.777771 24.1135 1.45868 25.4764 2.8205C26.8394 4.18233 27.5209 5.87919 27.5209 7.9111C27.5209 8.93333 27.3412 9.94074 26.982 10.9333C26.6227 11.9259 25.9949 13.0278 25.0986 14.2389C24.2023 15.45 22.9978 16.8218 21.485 18.3542C19.9721 19.8867 18.0582 21.7093 15.7431 23.8222L14.1875 25.2222Z" fill="#3CC27D"/>
</svg>
