<svg width="34" height="31" viewBox="0 0 34 31" fill="none" xmlns="http://www.w3.org/2000/svg">
<path d="M16.9999 30.9722L15.0555 29.2223C12.1616 26.5811 9.76918 24.3028 7.87813 22.3872C5.9871 20.4717 4.48141 18.7569 3.36104 17.243C2.24066 15.7292 1.45593 14.3519 1.00688 13.1111C0.557794 11.8704 0.333252 10.6111 0.333252 9.33334C0.333252 6.79345 1.1851 4.67237 2.88879 2.97009C4.59252 1.26781 6.70363 0.416672 9.22213 0.416672C10.7592 0.416672 12.1944 0.768519 13.5277 1.47221C14.861 2.17594 16.0184 3.1852 16.9999 4.50001C18.0925 3.12964 19.2916 2.10649 20.5971 1.43055C21.9027 0.75463 23.2962 0.416672 24.7777 0.416672C27.2962 0.416672 29.4073 1.26781 31.111 2.97009C32.8147 4.67237 33.6666 6.79345 33.6666 9.33334C33.6666 10.6111 33.4421 11.8704 32.993 13.1111C32.5439 14.3519 31.7592 15.7292 30.6388 17.243C29.5184 18.7569 28.0127 20.4717 26.1217 22.3872C24.2307 24.3028 21.8382 26.5811 18.9443 29.2223L16.9999 30.9722ZM16.9999 27.2778C19.7636 24.7594 22.0378 22.5997 23.8227 20.7987C25.6075 18.9977 27.0231 17.4236 28.0694 16.0764C29.1157 14.7292 29.8472 13.5288 30.2638 12.4754C30.6805 11.422 30.8888 10.376 30.8888 9.33734C30.8888 7.55689 30.3148 6.08796 29.1666 4.93055C28.0184 3.77313 26.5576 3.19442 24.784 3.19442C23.3946 3.19442 22.1087 3.60878 20.9263 4.43751C19.7439 5.2662 18.8333 6.39814 18.1943 7.83334H15.7777C15.1573 6.41667 14.2559 5.28935 13.0735 4.45138C11.8911 3.61341 10.6052 3.19442 9.21588 3.19442C7.44227 3.19442 5.98139 3.77313 4.83325 4.93055C3.68509 6.08796 3.111 7.55848 3.111 9.34209C3.111 10.3826 3.31934 11.4329 3.736 12.493C4.15267 13.5532 4.88415 14.7616 5.93046 16.118C6.97677 17.4745 8.39807 19.0486 10.1944 20.8403C11.9907 22.632 14.2592 24.7778 16.9999 27.2778Z" fill="black"/>
</svg>
