<svg width="15" height="15" viewBox="0 0 15 15" fill="none" xmlns="http://www.w3.org/2000/svg">
<path d="M14.1288 15L8.54256 9.41376C8.07358 9.76969 7.55933 10.0454 6.99981 10.2408C6.44029 10.4362 5.86294 10.5339 5.26776 10.5339C3.80479 10.5339 2.56108 10.0218 1.53665 8.99765C0.512217 7.9735 0 6.73042 0 5.26842C0 3.8064 0.512076 2.56282 1.53623 1.53768C2.56038 0.512561 3.80347 0 5.26549 0C6.72749 0 7.97107 0.512217 8.9962 1.53665C10.0213 2.56108 10.5339 3.80479 10.5339 5.26776C10.5339 5.88098 10.4332 6.46735 10.2318 7.02687C10.0303 7.58639 9.75767 8.09162 9.41376 8.54256L15 14.1288L14.1288 15ZM5.26694 9.31459C6.3973 9.31459 7.3545 8.92257 8.13854 8.13854C8.92257 7.3545 9.31459 6.3973 9.31459 5.26694C9.31459 4.13658 8.92257 3.17938 8.13854 2.39535C7.3545 1.61131 6.3973 1.21929 5.26694 1.21929C4.13658 1.21929 3.17938 1.61131 2.39535 2.39535C1.61133 3.17938 1.21932 4.13658 1.21932 5.26694C1.21932 6.3973 1.61133 7.3545 2.39535 8.13854C3.17938 8.92257 4.13658 9.31459 5.26694 9.31459Z" fill="black"/>
</svg>
