<svg width="34" height="34" viewBox="0 0 34 34" fill="none" xmlns="http://www.w3.org/2000/svg">
<path d="M10.8551 33.6389C9.99796 33.6389 9.26614 33.3337 8.65967 32.7232C8.05317 32.1129 7.74992 31.3791 7.74992 30.5219C7.74992 29.6647 8.05513 28.9329 8.66554 28.3264C9.27596 27.7199 10.0098 27.4167 10.8669 27.4167C11.7241 27.4167 12.4559 27.7219 13.0624 28.3323C13.6689 28.9427 13.9721 29.6765 13.9721 30.5337C13.9721 31.3909 13.6669 32.1227 13.0565 32.7292C12.4461 33.3356 11.7123 33.6389 10.8551 33.6389ZM27.5218 33.6389C26.6646 33.6389 25.9328 33.3337 25.3263 32.7232C24.7198 32.1129 24.4166 31.3791 24.4166 30.5219C24.4166 29.6647 24.7218 28.9329 25.3322 28.3264C25.9426 27.7199 26.6764 27.4167 27.5336 27.4167C28.3908 27.4167 29.1226 27.7219 29.7291 28.3323C30.3356 28.9427 30.6388 29.6765 30.6388 30.5337C30.6388 31.3909 30.3336 32.1227 29.7232 32.7292C29.1128 33.3356 28.379 33.6389 27.5218 33.6389ZM8.94433 6.41666L13.3333 15.5278H25.2222L30.2222 6.41666H8.94433ZM7.58325 3.63887H32.1408C32.7791 3.63887 33.2647 3.92823 33.5977 4.50695C33.9306 5.08565 33.9351 5.66666 33.611 6.25L27.8888 16.5555C27.5832 17.0926 27.1822 17.5185 26.6858 17.8333C26.1893 18.1481 25.6459 18.3055 25.0555 18.3055H12.4999L10.3333 22.3056H30.6388V25.0833H10.5833C9.38881 25.0833 8.51381 24.6412 7.95825 23.757C7.4027 22.8727 7.39807 21.9259 7.94438 20.9167L10.4722 16.2778L4.24992 3.11108H0.972168V0.333328H6.02771L7.58325 3.63887Z" fill="black"/>
</svg>
