<svg width="27" height="28" viewBox="0 0 27 28" fill="none" xmlns="http://www.w3.org/2000/svg">
<path d="M8.00504 27.3111C7.31931 27.3111 6.73385 27.0669 6.24867 26.5786C5.76347 26.0903 5.52087 25.5032 5.52087 24.8175C5.52087 24.1318 5.76504 23.5463 6.25337 23.0611C6.74171 22.5759 7.32874 22.3333 8.01447 22.3333C8.70023 22.3333 9.2857 22.5775 9.77087 23.0658C10.2561 23.5542 10.4986 24.1412 10.4986 24.8269C10.4986 25.5127 10.2545 26.0981 9.76614 26.5833C9.27783 27.0685 8.69079 27.3111 8.00504 27.3111ZM21.3384 27.3111C20.6526 27.3111 20.0672 27.0669 19.582 26.5786C19.0968 26.0903 18.8542 25.5032 18.8542 24.8175C18.8542 24.1318 19.0984 23.5463 19.5867 23.0611C20.075 22.5759 20.6621 22.3333 21.3478 22.3333C22.0336 22.3333 22.619 22.5775 23.1042 23.0658C23.5894 23.5542 23.832 24.1412 23.832 24.8269C23.832 25.5127 23.5878 26.0981 23.0995 26.5833C22.6112 27.0685 22.0241 27.3111 21.3384 27.3111ZM6.47641 5.53332C6.47641 5.53332 6.33415 6.98583 8.92094 8.79998C11.962 10.9327 13.62 4.87152 20.1209 7.99998C22.6145 9.19998 23.4987 5.53332 23.4987 5.53332H6.47641ZM5.38754 3.31109H25.0336C25.5442 3.31109 25.9327 3.54258 26.1991 4.00556C26.4655 4.46851 26.469 4.93332 26.2098 5.39999L21.632 13.6444C21.3875 14.074 21.0667 14.4148 20.6696 14.6667C20.2724 14.9185 19.8376 15.0444 19.3653 15.0444H9.32087L7.58754 18.2445H23.832V20.4667H7.78754C6.83198 20.4667 6.13198 20.113 5.68754 19.4056C5.2431 18.6982 5.2394 17.9407 5.67644 17.1333L7.69867 13.4222L2.72087 2.88886H0.0986729V0.666656H4.14311L5.38754 3.31109Z" fill="#3CC27D"/>
</svg>
