<svg width="12" height="18" viewBox="0 0 12 18" fill="none" xmlns="http://www.w3.org/2000/svg">
<path d="M5.98355 4.19222C5.80435 4.19222 5.64984 4.12879 5.52003 4.00191C5.39023 3.87502 5.32533 3.72198 5.32533 3.54279C5.32533 3.36358 5.38876 3.20907 5.51564 3.07926C5.64253 2.94946 5.79557 2.88456 5.97476 2.88456C6.15397 2.88456 6.30848 2.94799 6.43828 3.07487C6.56809 3.20176 6.63299 3.35481 6.63299 3.53401C6.63299 3.71321 6.56955 3.86771 6.44268 3.99751C6.31579 4.12732 6.16275 4.19222 5.98355 4.19222ZM5.98355 1.56401C5.80435 1.56401 5.64984 1.50058 5.52003 1.3737C5.39023 1.24681 5.32533 1.09376 5.32533 0.914556C5.32533 0.735362 5.38876 0.580862 5.51564 0.451056C5.64253 0.32125 5.79557 0.256348 5.97476 0.256348C6.15397 0.256348 6.30848 0.319785 6.43828 0.44666C6.56809 0.573549 6.63299 0.726591 6.63299 0.905785C6.63299 1.08499 6.56955 1.2395 6.44268 1.36931C6.31579 1.49911 6.16275 1.56401 5.98355 1.56401ZM3.27245 17.3428C2.54062 16.9101 1.99575 16.31 1.63785 15.5423C1.27994 14.7747 1.09833 13.9678 1.09299 13.1217C1.08444 12.0929 1.3518 11.1508 1.8951 10.2956C2.43837 9.44036 3.16886 8.79106 4.08656 8.3477V6.19866C4.08656 6.04492 4.13828 5.91622 4.24174 5.81254C4.34521 5.70886 4.47365 5.65701 4.62705 5.65701H7.36601C7.51943 5.65701 7.64902 5.70886 7.75478 5.81254C7.86055 5.91622 7.91343 6.04492 7.91343 6.19866V8.3477C8.84185 8.79106 9.56807 9.44036 10.0921 10.2956C10.6161 11.1508 10.8878 12.0929 10.907 13.1217C10.9017 13.9732 10.7179 14.7779 10.3557 15.5359C9.99356 16.2939 9.45083 16.8962 8.72753 17.3428H3.27245ZM3.64424 16.2595H8.35574C8.83971 15.9005 9.20537 15.4422 9.4527 14.8845C9.70003 14.3268 9.8237 13.7392 9.8237 13.1217C9.8237 12.3275 9.63033 11.5975 9.24358 10.9315C8.85683 10.2656 8.30715 9.75739 7.59453 9.40697L6.83012 9.04158V6.74031H5.16987V9.04158L4.40545 9.40697C3.69284 9.75739 3.14316 10.2656 2.75641 10.9315C2.36966 11.5975 2.17628 12.3275 2.17628 13.1217C2.17628 13.7392 2.29648 14.3268 2.53687 14.8845C2.77726 15.4422 3.14638 15.9005 3.64424 16.2595ZM1.48314 2.31401C1.31381 2.31401 1.16424 2.25197 1.03443 2.12789C0.904624 2.00382 0.839722 1.85425 0.839722 1.67918C0.839722 1.50413 0.901763 1.34822 1.02585 1.21147C1.14993 1.07472 1.2995 1.00635 1.47455 1.00635C1.64962 1.00635 1.80553 1.07472 1.94228 1.21147C2.07903 1.34822 2.14741 1.50413 2.14741 1.67918C2.14741 1.85425 2.07903 2.00382 1.94228 2.12789C1.80553 2.25197 1.65249 2.31401 1.48314 2.31401ZM10.5108 2.31401C10.3316 2.31401 10.1771 2.25197 10.0473 2.12789C9.91748 2.00382 9.85258 1.85425 9.85258 1.67918C9.85258 1.50413 9.91602 1.34822 10.0429 1.21147C10.1698 1.07472 10.3228 1.00635 10.502 1.00635C10.6812 1.00635 10.8357 1.07472 10.9656 1.21147C11.0954 1.34822 11.1603 1.50413 11.1603 1.67918C11.1603 1.85425 11.0968 2.00382 10.9699 2.12789C10.8431 2.25197 10.69 2.31401 10.5108 2.31401ZM3.35533 4.19222C3.17613 4.19222 3.02162 4.12879 2.89181 4.00191C2.762 3.87502 2.6971 3.72198 2.6971 3.54279C2.6971 3.36358 2.76054 3.20907 2.88743 3.07926C3.01432 2.94946 3.16736 2.88456 3.34656 2.88456C3.52576 2.88456 3.68027 2.94799 3.81008 3.07487C3.93988 3.20176 4.00478 3.35481 4.00478 3.53401C4.00478 3.71321 3.94134 3.86771 3.81445 3.99751C3.68758 4.12732 3.53453 4.19222 3.35533 4.19222ZM8.59093 4.19222C8.41172 4.19222 8.25722 4.12879 8.12741 4.00191C7.9976 3.87502 7.9327 3.72198 7.9327 3.54279C7.9327 3.36358 7.99615 3.20907 8.12303 3.07926C8.24991 2.94946 8.40295 2.88456 8.58216 2.88456C8.76135 2.88456 8.91586 2.94799 9.04568 3.07487C9.17549 3.20176 9.24039 3.35481 9.24039 3.53401C9.24039 3.71321 9.17694 3.86771 9.05006 3.99751C8.92318 4.12732 8.77014 4.19222 8.59093 4.19222Z" fill="#3D3D3D"/>
</svg>
