<svg width="15" height="15" viewBox="0 0 15 15" fill="none" xmlns="http://www.w3.org/2000/svg">
<path d="M2.33218 14.359C1.69408 14.359 1.18727 14.1104 0.811742 13.613C0.436214 13.1157 0.326971 12.5588 0.484012 11.9424L1.98241 6.38949C1.54331 6.20895 1.17259 5.90314 0.870242 5.47205C0.56788 5.04096 0.4167 4.5503 0.4167 4.00009C0.4167 3.28136 0.667568 2.67112 1.1693 2.16939C1.67104 1.66765 2.28128 1.41678 3.00001 1.41678H9.08333C9.58574 1.41678 9.96535 1.62752 10.2221 2.04899C10.4789 2.47046 10.4957 2.90449 10.2724 3.35107L9.02885 5.83822C8.91873 6.0615 8.75468 6.24151 8.53668 6.37826C8.31868 6.51502 8.08637 6.58341 7.83974 6.58341H5.8862L5.5753 7.75168H5.72914C5.91493 7.75702 6.07169 7.82295 6.19941 7.94945C6.32713 8.07595 6.39099 8.23271 6.39099 8.41972V9.65964C6.39099 9.84891 6.3268 10.0088 6.19841 10.1393C6.07002 10.2697 5.91093 10.335 5.72114 10.335H4.85805L4.18268 12.9424C4.06569 13.3609 3.83704 13.7017 3.49672 13.9646C3.1564 14.2276 2.76822 14.359 2.33218 14.359ZM2.33335 13.2757C2.52779 13.2757 2.69793 13.2202 2.84376 13.1091C2.9896 12.9979 3.09029 12.8452 3.14585 12.6507L4.75643 6.58341H3.04958L1.52085 12.2341C1.4514 12.4979 1.50001 12.7375 1.66668 12.9528C1.83335 13.1681 2.05557 13.2757 2.33335 13.2757ZM3.00001 5.50009H7.83974C7.88783 5.50009 7.93324 5.48674 7.97597 5.46003C8.01871 5.43332 8.05076 5.39859 8.07214 5.35584L9.3157 2.86872C9.35844 2.78323 9.35443 2.70043 9.30368 2.6203C9.25293 2.54016 9.17948 2.50009 9.08333 2.50009H3.00001C2.58751 2.50009 2.23439 2.6474 1.94064 2.94201C1.64689 3.23664 1.50001 3.5908 1.50001 4.00451C1.50001 4.41823 1.64689 4.77093 1.94064 5.06259C2.23439 5.35426 2.58751 5.50009 3.00001 5.50009ZM11.992 2.29334L11.6715 1.57703L14.2131 0.402344L14.5416 1.11066L11.992 2.29334ZM14.2131 7.84784L11.6715 6.67316L11.992 5.96484L14.5416 7.13953L14.2131 7.84784ZM12.1314 4.38791V3.61228H14.907V4.38791H12.1314Z" fill="#3D3D3D"/>
</svg>
