<svg width="18" height="14" viewBox="0 0 18 14" fill="none" xmlns="http://www.w3.org/2000/svg">
<path d="M3.27011 13.3107C3.11781 13.3107 2.98877 13.2588 2.88301 13.155C2.77725 13.0512 2.72436 12.9225 2.72436 12.7691V11.5191H2.49999C1.91774 11.5191 1.42496 11.3174 1.02166 10.9141C0.618323 10.5108 0.416656 10.018 0.416656 9.43578V5.93578C0.416656 5.32147 0.626323 4.82067 1.04566 4.43338C1.46499 4.0461 1.94976 3.85246 2.49997 3.85246L2.99997 3.89413V2.51274C2.99997 2.06937 3.15301 1.69465 3.45909 1.38857C3.76518 1.08249 4.13991 0.929443 4.58328 0.929443H13.4167C13.86 0.929443 14.2348 1.08249 14.5408 1.38857C14.8469 1.69465 15 2.06937 15 2.51274V3.89413L15.5 3.85246C16.0716 3.85246 16.5617 4.05011 16.9703 4.4454C17.379 4.84069 17.5833 5.33748 17.5833 5.93578V9.43578C17.5833 10.018 17.3816 10.5108 16.9783 10.9141C16.575 11.3174 16.0822 11.5191 15.5 11.5191H15.2756V12.7691C15.2756 12.9225 15.2269 13.0512 15.1294 13.155C15.0319 13.2588 14.907 13.3107 14.7547 13.3107C14.6024 13.3107 14.4732 13.2588 14.3673 13.155C14.2613 13.0512 14.2083 12.9225 14.2083 12.7691V11.5191H3.80768V12.7691C3.80768 12.9228 3.75616 13.0515 3.65312 13.1552C3.55009 13.2589 3.42242 13.3107 3.27011 13.3107ZM2.49999 10.4358H15.5C15.7833 10.4358 16.0208 10.3399 16.2125 10.1483C16.4042 9.95661 16.5 9.71911 16.5 9.43578V5.93578C16.5 5.65244 16.4042 5.41494 16.2125 5.22328C16.0208 5.03161 15.7833 4.93578 15.5 4.93578C15.2167 4.93578 14.9792 5.03161 14.7875 5.22328C14.5958 5.41494 14.5 5.65244 14.5 5.93578V8.72742H3.49999V5.93578C3.49999 5.65244 3.40416 5.41494 3.21249 5.22328C3.02082 5.03161 2.78332 4.93578 2.49999 4.93578C2.21666 4.93578 1.97916 5.03161 1.78749 5.22328C1.59582 5.41494 1.49999 5.65244 1.49999 5.93578V9.43578C1.49999 9.71911 1.59582 9.95661 1.78749 10.1483C1.97916 10.3399 2.21666 10.4358 2.49999 10.4358ZM4.5833 7.64413H13.4167V5.93578C13.4167 5.73705 13.4514 5.52258 13.5208 5.29236C13.5903 5.06212 13.7222 4.85299 13.9167 4.66496V2.51274C13.9167 2.37107 13.8688 2.25232 13.7729 2.15649C13.6771 2.06065 13.5583 2.01274 13.4167 2.01274H4.5833C4.44164 2.01274 4.32289 2.06065 4.22705 2.15649C4.13122 2.25232 4.0833 2.37107 4.0833 2.51274V4.66496C4.27775 4.85299 4.40969 5.06212 4.47914 5.29236C4.54858 5.52258 4.5833 5.73705 4.5833 5.93578V7.64413Z" fill="#3D3D3D"/>
</svg>
