<svg width="14" height="14" viewBox="0 0 14 14" fill="none" xmlns="http://www.w3.org/2000/svg">
<path d="M8.95585 6.87185C8.71285 6.87185 8.50615 6.78796 8.33575 6.62016C8.16533 6.45239 8.08012 6.247 8.08012 6.004C8.08012 5.761 8.16402 5.55429 8.33181 5.38387C8.4996 5.21347 8.705 5.12827 8.948 5.12827C9.191 5.12827 9.3977 5.21216 9.5681 5.37996C9.73851 5.54773 9.82371 5.75312 9.82371 5.99612C9.82371 6.23912 9.73981 6.44583 9.57202 6.61625C9.40424 6.78665 9.19885 6.87185 8.95585 6.87185ZM5.052 6.87185C4.809 6.87185 4.6023 6.78796 4.4319 6.62016C4.26149 6.45239 4.17629 6.247 4.17629 6.004C4.17629 5.761 4.26019 5.55429 4.42798 5.38387C4.59576 5.21347 4.80115 5.12827 5.04415 5.12827C5.28715 5.12827 5.49385 5.21216 5.66425 5.37996C5.83467 5.54773 5.91987 5.75312 5.91987 5.99612C5.91987 6.23912 5.83598 6.44583 5.66819 6.61625C5.5004 6.78665 5.295 6.87185 5.052 6.87185ZM6.99779 10.6795C6.25996 10.6795 5.58509 10.4811 4.97319 10.0842C4.36127 9.68728 3.89158 9.15924 3.56412 8.50006H10.4359C10.0919 9.15924 9.6173 9.68728 9.01221 10.0842C8.4071 10.4811 7.73562 10.6795 6.99779 10.6795ZM7.00046 13.5834C6.08669 13.5834 5.23065 13.4107 4.43233 13.0652C3.63401 12.7198 2.93786 12.2502 2.34387 11.6562C1.7499 11.0622 1.28021 10.3662 0.934812 9.56819C0.589395 8.77017 0.416687 7.91428 0.416687 7.00052C0.416687 6.08675 0.589395 5.23071 0.934812 4.43239C1.28021 3.63407 1.7499 2.93792 2.34387 2.34394C2.93786 1.74996 3.63386 1.28028 4.43187 0.934873C5.22989 0.589456 6.08578 0.416748 6.99954 0.416748C7.91331 0.416748 8.76935 0.589456 9.56767 0.934873C10.366 1.28028 11.0621 1.74996 11.6561 2.34394C12.2501 2.93792 12.7198 3.63392 13.0652 4.43194C13.4106 5.22995 13.5833 6.08584 13.5833 6.9996C13.5833 7.91337 13.4106 8.76941 13.0652 9.56773C12.7198 10.366 12.2501 11.0622 11.6561 11.6562C11.0621 12.2502 10.3661 12.7198 9.56812 13.0652C8.77011 13.4107 7.91422 13.5834 7.00046 13.5834ZM7 12.5001C8.52778 12.5001 9.82639 11.9653 10.8958 10.8959C11.9653 9.82645 12.5 8.52784 12.5 7.00006C12.5 5.47228 11.9653 4.17367 10.8958 3.10423C9.82639 2.03478 8.52778 1.50006 7 1.50006C6.95228 1.50006 6.91844 1.50273 6.8985 1.50808C6.87855 1.51341 6.84828 1.51608 6.80769 1.51608C6.59294 1.54066 6.42493 1.62053 6.30367 1.75566C6.18242 1.89082 6.12179 2.05562 6.12179 2.25006C6.12179 2.49212 6.20765 2.699 6.37935 2.87071C6.55106 3.04241 6.75874 3.12827 7.0024 3.12827C7.25294 3.12827 7.41934 3.06577 7.5016 2.94077C7.58387 2.81577 7.72222 2.75327 7.91667 2.75327C8.01694 2.75327 8.10051 2.78571 8.16735 2.85058C8.2342 2.91547 8.26762 3.00737 8.26762 3.12627C8.26762 3.29746 8.1501 3.46453 7.91506 3.62746C7.68002 3.79039 7.375 3.87185 7 3.87185C6.54594 3.87185 6.16213 3.71507 5.84856 3.4015C5.53499 3.08793 5.37821 2.70412 5.37821 2.25006C5.37821 2.15605 5.38515 2.06519 5.39904 1.97748C5.41293 1.88977 5.44338 1.80061 5.4904 1.71C4.29702 2.05294 3.33361 2.71026 2.60017 3.68196C1.86672 4.65364 1.5 5.76061 1.5 7.00287C1.5 8.52878 2.03472 9.82645 3.10417 10.8959C4.17361 11.9653 5.47222 12.5001 7 12.5001Z" fill="#3D3D3D"/>
</svg>
