<svg width="16" height="12" viewBox="0 0 16 12" fill="none" xmlns="http://www.w3.org/2000/svg">
<path d="M1.5 11.5834C1.20503 11.5834 0.950736 11.4741 0.737125 11.2556C0.5235 11.0372 0.416687 10.7853 0.416687 10.5001V7.83662C0.845215 7.7458 1.20235 7.52948 1.48808 7.18764C1.77382 6.84583 1.91669 6.44996 1.91669 6.00006C1.91669 5.55016 1.77382 5.1543 1.48808 4.81248C1.20235 4.47064 0.845215 4.25432 0.416687 4.1635V1.50006C0.416687 1.21481 0.5235 0.962949 0.737125 0.744477C0.950736 0.525991 1.20503 0.416748 1.5 0.416748H14.5C14.795 0.416748 15.0493 0.525991 15.2629 0.744477C15.4765 0.962949 15.5833 1.21481 15.5833 1.50006V4.1635C15.1548 4.25432 14.7977 4.47064 14.5119 4.81248C14.2262 5.1543 14.0833 5.55016 14.0833 6.00006C14.0833 6.44996 14.2262 6.84583 14.5119 7.18764C14.7977 7.52948 15.1548 7.7458 15.5833 7.83662V10.5001C15.5833 10.7853 15.4765 11.0372 15.2629 11.2556C15.0493 11.4741 14.795 11.5834 14.5 11.5834H1.5ZM1.5 10.5001H14.5V8.60423C14.0556 8.34034 13.6944 7.97923 13.4167 7.52089C13.1389 7.06256 13 6.55562 13 6.00006C13 5.4445 13.1389 4.93756 13.4167 4.47923C13.6944 4.02089 14.0556 3.65978 14.5 3.39589V1.50006H1.5V3.39589C1.94444 3.65978 2.30556 4.02089 2.58333 4.47923C2.86111 4.93756 3 5.4445 3 6.00006C3 6.55562 2.86111 7.06256 2.58333 7.52089C2.30556 7.97923 1.94444 8.34034 1.5 8.60423V10.5001ZM7.9959 9.21158C8.1482 9.21158 8.27724 9.16007 8.383 9.05704C8.48876 8.95401 8.54165 8.82635 8.54165 8.67404C8.54165 8.52173 8.49013 8.39269 8.3871 8.28691C8.28408 8.18115 8.15641 8.12827 8.0041 8.12827C7.8518 8.12827 7.72276 8.17978 7.617 8.28281C7.51124 8.38585 7.45835 8.51353 7.45835 8.66583C7.45835 8.81812 7.50987 8.94716 7.6129 9.05294C7.71592 9.1587 7.84359 9.21158 7.9959 9.21158ZM7.9959 6.54171C8.1482 6.54171 8.27724 6.49019 8.383 6.38716C8.48876 6.28414 8.54165 6.15647 8.54165 6.00417C8.54165 5.85186 8.49013 5.72283 8.3871 5.61706C8.28408 5.5113 8.15641 5.45841 8.0041 5.45841C7.8518 5.45841 7.72276 5.50993 7.617 5.61296C7.51124 5.71598 7.45835 5.84365 7.45835 5.99596C7.45835 6.14826 7.50987 6.2773 7.6129 6.38306C7.71592 6.48882 7.84359 6.54171 7.9959 6.54171ZM7.9959 3.87185C8.1482 3.87185 8.27724 3.82034 8.383 3.71731C8.48876 3.61427 8.54165 3.4866 8.54165 3.33429C8.54165 3.182 8.49013 3.05296 8.3871 2.94719C8.28408 2.84142 8.15641 2.78854 8.0041 2.78854C7.8518 2.78854 7.72276 2.84005 7.617 2.94308C7.51124 3.04611 7.45835 3.17378 7.45835 3.32608C7.45835 3.47839 7.50987 3.60743 7.6129 3.71321C7.71592 3.81897 7.84359 3.87185 7.9959 3.87185Z" fill="#3D3D3D"/>
</svg>
