<svg width="16" height="14" viewBox="0 0 16 14" fill="none" xmlns="http://www.w3.org/2000/svg">
<path d="M5.41669 13.5624V12.4791H6.91669V10.9791H1.75644C1.38133 10.9791 1.06426 10.8496 0.805229 10.5905C0.546201 10.3315 0.416687 10.0144 0.416687 9.63934V1.7355C0.416687 1.36039 0.546201 1.04332 0.805229 0.784294C1.06426 0.525266 1.38133 0.395752 1.75644 0.395752H14.2436C14.6187 0.395752 14.9357 0.525266 15.1948 0.784294C15.4538 1.04332 15.5833 1.36039 15.5833 1.7355V9.63934C15.5833 10.0144 15.4538 10.3315 15.1948 10.5905C14.9357 10.8496 14.6187 10.9791 14.2436 10.9791H9.08331V12.4791H10.5833V13.5624H5.41669ZM1.75644 9.89575H14.2436C14.3077 9.89575 14.3664 9.86904 14.4199 9.81563C14.4733 9.76221 14.5 9.70345 14.5 9.63934V1.7355C14.5 1.67139 14.4733 1.61262 14.4199 1.55919C14.3664 1.50577 14.3077 1.47906 14.2436 1.47906H1.75644C1.69233 1.47906 1.63355 1.50577 1.58012 1.55919C1.52671 1.61262 1.5 1.67139 1.5 1.7355V9.63934C1.5 9.70345 1.52671 9.76221 1.58012 9.81563C1.63355 9.86904 1.69233 9.89575 1.75644 9.89575Z" fill="#3D3D3D"/>
</svg>
