<svg width="14" height="14" viewBox="0 0 14 14" fill="none" xmlns="http://www.w3.org/2000/svg">
<path d="M4.61535 13.5834H1.75644C1.39105 13.5834 1.07641 13.4514 0.81252 13.1875C0.548631 12.9237 0.416687 12.609 0.416687 12.2436V7.00006C0.416687 6.0866 0.590089 5.23071 0.936895 4.43239C1.28369 3.63407 1.75525 2.93792 2.35158 2.34394C2.94793 1.74996 3.64686 1.28028 4.44837 0.934873C5.24989 0.589456 6.1039 0.416748 7.01042 0.416748C7.91693 0.416748 8.76935 0.589456 9.56767 0.934873C10.366 1.28028 11.0621 1.74996 11.6561 2.34394C12.2501 2.93792 12.7198 3.63407 13.0652 4.43239C13.4106 5.23071 13.5833 6.0866 13.5833 7.00006V12.2436C13.5833 12.609 13.4538 12.9237 13.1948 13.1875C12.9357 13.4514 12.6187 13.5834 12.2436 13.5834H9.38465V8.35264H12.5V7.00006C12.5 5.46792 11.9668 4.16822 10.9005 3.10096C9.83408 2.03369 8.53547 1.50006 7.00462 1.50006C5.47376 1.50006 4.17361 2.03369 3.10417 3.10096C2.03472 4.16822 1.5 5.46792 1.5 7.00006V8.35264H4.61535V13.5834ZM3.53206 9.43596H1.5V12.2436C1.5 12.3077 1.52671 12.3665 1.58012 12.4199C1.63355 12.4734 1.69233 12.5001 1.75644 12.5001H3.53206V9.43596ZM10.4679 9.43596V12.5001H12.2436C12.3077 12.5001 12.3664 12.4734 12.4199 12.4199C12.4733 12.3665 12.5 12.3077 12.5 12.2436V9.43596H10.4679Z" fill="#3D3D3D"/>
</svg>
