<svg width="20" height="14" viewBox="0 0 20 14" fill="none" xmlns="http://www.w3.org/2000/svg">
<path d="M1.61219 13.6956C1.28516 13.6956 1.00415 13.5781 0.769166 13.3431C0.53418 13.1081 0.416687 12.8271 0.416687 12.5001H3.75646C3.38135 12.5001 3.06428 12.3705 2.80525 12.1115C2.54622 11.8525 2.41671 11.5354 2.41671 11.1603V1.7565C2.41671 1.38139 2.54622 1.06432 2.80525 0.80529C3.06428 0.546262 3.38135 0.416748 3.75646 0.416748H16.2436C16.6187 0.416748 16.9358 0.546262 17.1948 0.80529C17.4538 1.06432 17.5833 1.38139 17.5833 1.7565V11.1603C17.5833 11.5354 17.4538 11.8525 17.1948 12.1115C16.9358 12.3705 16.6187 12.5001 16.2436 12.5001H19.5833C19.5833 12.8313 19.4658 13.1133 19.2308 13.3462C18.9958 13.5791 18.7148 13.6956 18.3878 13.6956H1.61219ZM9.9956 13.1539C10.1588 13.1539 10.2986 13.0971 10.4151 12.9836C10.5315 12.8701 10.5897 12.7317 10.5897 12.5686C10.5897 12.4054 10.533 12.2656 10.4194 12.1491C10.3059 12.0327 10.1676 11.9744 10.0044 11.9744C9.84122 11.9744 9.7014 12.0312 9.58494 12.1447C9.46849 12.2583 9.41027 12.3966 9.41027 12.5598C9.41027 12.723 9.46704 12.8628 9.58056 12.9792C9.69409 13.0957 9.83244 13.1539 9.9956 13.1539ZM3.75644 11.4167H16.2436C16.3077 11.4167 16.3664 11.39 16.4199 11.3366C16.4733 11.2832 16.5 11.2244 16.5 11.1603V1.7565C16.5 1.69239 16.4733 1.63362 16.4199 1.58019C16.3664 1.52677 16.3077 1.50006 16.2436 1.50006H3.75644C3.69233 1.50006 3.63356 1.52677 3.58012 1.58019C3.52671 1.63362 3.5 1.69239 3.5 1.7565V11.1603C3.5 11.2244 3.52671 11.2832 3.58012 11.3366C3.63356 11.39 3.69233 11.4167 3.75644 11.4167Z" fill="#3D3D3D"/>
</svg>
