<svg width="12" height="16" viewBox="0 0 12 16" fill="none" xmlns="http://www.w3.org/2000/svg">
<path d="M1.75052 15.5834C1.38053 15.5834 1.06574 15.4525 0.806124 15.1908C0.546499 14.9291 0.416687 14.6134 0.416687 14.2436V1.7565C0.416687 1.38673 0.547617 1.071 0.809478 0.80931C1.07135 0.547602 1.38728 0.416748 1.75727 0.416748H10.2495C10.6195 0.416748 10.9343 0.547602 11.1939 0.80931C11.4535 1.071 11.5833 1.38673 11.5833 1.7565V14.2436C11.5833 14.6134 11.4524 14.9291 11.1905 15.1908C10.9286 15.4525 10.6127 15.5834 10.2427 15.5834H1.75052ZM1.75644 14.5001H10.2436C10.3077 14.5001 10.3664 14.4734 10.4199 14.4199C10.4733 14.3665 10.5 14.3077 10.5 14.2436V1.7565C10.5 1.69239 10.4733 1.63362 10.4199 1.58019C10.3664 1.52677 10.3077 1.50006 10.2436 1.50006H1.75644C1.69233 1.50006 1.63356 1.52677 1.58012 1.58019C1.52671 1.63362 1.5 1.69239 1.5 1.7565V14.2436C1.5 14.3077 1.52671 14.3665 1.58012 14.4199C1.63356 14.4734 1.69233 14.5001 1.75644 14.5001ZM6.00412 12.6795C6.88278 12.6795 7.63167 12.3686 8.25079 11.7467C8.8699 11.1249 9.17946 10.3746 9.17946 9.49594C9.17946 8.61728 8.86853 7.86839 8.24667 7.24927C7.62479 6.63016 6.87453 6.3206 5.99587 6.3206C5.11722 6.3206 4.36833 6.63153 3.74921 7.25339C3.1301 7.87527 2.82054 8.62553 2.82054 9.50419C2.82054 10.3828 3.13147 11.1317 3.75333 11.7509C4.37521 12.37 5.12547 12.6795 6.00412 12.6795ZM5.99842 11.5001C5.73558 11.5001 5.4829 11.4501 5.24037 11.3502C4.99785 11.2503 4.78417 11.1058 4.59935 10.9167L7.41667 8.09941C7.60576 8.28535 7.75026 8.5003 7.85017 8.74429C7.95005 8.98826 8 9.24112 8 9.50285C8 10.0565 7.8054 10.5278 7.41621 10.9167C7.02701 11.3056 6.55442 11.5001 5.99842 11.5001ZM3.2456 4.00006C3.45687 4.00006 3.63542 3.92861 3.78125 3.78571C3.92708 3.64279 4 3.46571 4 3.25446C4 3.04319 3.92855 2.86464 3.78565 2.71881C3.64273 2.57298 3.46565 2.50006 3.2544 2.50006C3.04313 2.50006 2.86458 2.57151 2.71875 2.71441C2.57292 2.85733 2.5 3.03441 2.5 3.24566C2.5 3.45693 2.57145 3.63548 2.71435 3.78131C2.85727 3.92714 3.03435 4.00006 3.2456 4.00006ZM5.7456 4.00006C5.95687 4.00006 6.13542 3.92861 6.28125 3.78571C6.42708 3.64279 6.5 3.46571 6.5 3.25446C6.5 3.04319 6.42855 2.86464 6.28565 2.71881C6.14273 2.57298 5.96565 2.50006 5.7544 2.50006C5.54313 2.50006 5.36458 2.57151 5.21875 2.71441C5.07292 2.85733 5 3.03441 5 3.24566C5 3.45693 5.07145 3.63548 5.21435 3.78131C5.35727 3.92714 5.53435 4.00006 5.7456 4.00006Z" fill="#3D3D3D"/>
</svg>
