<svg width="14" height="14" viewBox="0 0 14 14" fill="none" xmlns="http://www.w3.org/2000/svg">
<path d="M1.75644 13.5834C1.38133 13.5834 1.06426 13.4539 0.805229 13.1948C0.546201 12.9358 0.416687 12.6187 0.416687 12.2436V1.7565C0.416687 1.38139 0.546201 1.06432 0.805229 0.80529C1.06426 0.546262 1.38133 0.416748 1.75644 0.416748H12.2436C12.6187 0.416748 12.9357 0.546262 13.1948 0.80529C13.4538 1.06432 13.5833 1.38139 13.5833 1.7565V12.2436C13.5833 12.6187 13.4538 12.9358 13.1948 13.1948C12.9357 13.4539 12.6187 13.5834 12.2436 13.5834H1.75644ZM1.5 6.79171V12.2436C1.5 12.3077 1.52671 12.3665 1.58012 12.4199C1.63355 12.4734 1.69233 12.5001 1.75644 12.5001H12.2436C12.3077 12.5001 12.3664 12.4734 12.4199 12.4199C12.4733 12.3665 12.5 12.3077 12.5 12.2436V6.79171H10.5833V10.5834H3.41669V6.79171H1.5ZM4.5 9.50006H9.5V6.79171H4.5V9.50006ZM1.5 5.70841H12.5V1.7565C12.5 1.69239 12.4733 1.63362 12.4199 1.58019C12.3664 1.52677 12.3077 1.50006 12.2436 1.50006H1.75644C1.69233 1.50006 1.63355 1.52677 1.58012 1.58019C1.52671 1.63362 1.5 1.69239 1.5 1.7565V5.70841ZM3.73835 4.08019C3.55916 4.08019 3.40466 4.01675 3.27485 3.88987C3.14503 3.76298 3.08012 3.60994 3.08012 3.43075C3.08012 3.25154 3.14357 3.09703 3.27046 2.96723C3.39735 2.83742 3.55039 2.77252 3.72958 2.77252C3.90879 2.77252 4.0633 2.83596 4.1931 2.96283C4.32291 3.08972 4.38781 3.24277 4.38781 3.42198C4.38781 3.60117 4.32437 3.75567 4.19748 3.88548C4.0706 4.01528 3.91756 4.08019 3.73835 4.08019ZM6.98835 4.08019C6.80916 4.08019 6.65466 4.01675 6.52485 3.88987C6.39503 3.76298 6.33012 3.60994 6.33012 3.43075C6.33012 3.25154 6.39357 3.09703 6.52046 2.96723C6.64735 2.83742 6.80039 2.77252 6.97958 2.77252C7.15879 2.77252 7.3133 2.83596 7.4431 2.96283C7.57291 3.08972 7.63781 3.24277 7.63781 3.42198C7.63781 3.60117 7.57437 3.75567 7.44748 3.88548C7.3206 4.01528 7.16756 4.08019 6.98835 4.08019ZM10.2384 4.08019C10.0592 4.08019 9.90466 4.01675 9.77485 3.88987C9.64503 3.76298 9.58012 3.60994 9.58012 3.43075C9.58012 3.25154 9.64357 3.09703 9.77046 2.96723C9.89733 2.83742 10.0504 2.77252 10.2296 2.77252C10.4088 2.77252 10.5633 2.83596 10.6931 2.96283C10.8229 3.08972 10.8878 3.24277 10.8878 3.42198C10.8878 3.60117 10.8244 3.75567 10.6975 3.88548C10.5706 4.01528 10.4176 4.08019 10.2384 4.08019Z" fill="#3D3D3D"/>
</svg>
