<svg width="12" height="18" viewBox="0 0 12 18" fill="none" xmlns="http://www.w3.org/2000/svg">
<path d="M1.75644 17.5834C1.38133 17.5834 1.06426 17.4539 0.805229 17.1948C0.546201 16.9358 0.416687 16.6187 0.416687 16.2436V1.7565C0.416687 1.38139 0.546201 1.06432 0.805229 0.80529C1.06426 0.546262 1.38133 0.416748 1.75644 0.416748H10.2436C10.6187 0.416748 10.9357 0.546262 11.1948 0.80529C11.4538 1.06432 11.5833 1.38139 11.5833 1.7565V16.2436C11.5833 16.6187 11.4538 16.9358 11.1948 17.1948C10.9357 17.4539 10.6187 17.5834 10.2436 17.5834H1.75644ZM1.5 13.3077V16.2436C1.5 16.3077 1.52671 16.3665 1.58012 16.4199C1.63356 16.4734 1.69233 16.5001 1.75644 16.5001H10.2436C10.3077 16.5001 10.3664 16.4734 10.4199 16.4199C10.4733 16.3665 10.5 16.3077 10.5 16.2436V13.3077H1.5ZM5.9956 15.5577C6.17481 15.5577 6.32932 15.4943 6.45912 15.3674C6.58893 15.2405 6.65383 15.0875 6.65383 14.9083C6.65383 14.7291 6.59039 14.5746 6.46352 14.4448C6.33663 14.315 6.18359 14.2501 6.0044 14.2501C5.82519 14.2501 5.67068 14.3135 5.54087 14.4404C5.41107 14.5673 5.34617 14.7203 5.34617 14.8995C5.34617 15.0787 5.4096 15.2332 5.53648 15.363C5.66337 15.4928 5.81641 15.5577 5.9956 15.5577ZM1.5 12.2244H10.5V3.79171H1.5V12.2244ZM1.5 2.70841H10.5V1.7565C10.5 1.69239 10.4733 1.63362 10.4199 1.58019C10.3664 1.52677 10.3077 1.50006 10.2436 1.50006H1.75644C1.69233 1.50006 1.63356 1.52677 1.58012 1.58019C1.52671 1.63362 1.5 1.69239 1.5 1.7565V2.70841Z" fill="#3D3D3D"/>
</svg>
