<svg width="16" height="16" viewBox="0 0 16 16" fill="none" xmlns="http://www.w3.org/2000/svg">
<path d="M8.01041 12.2629C8.98743 12.2629 9.80848 11.9303 10.4735 11.2653C11.1386 10.6002 11.4711 9.78264 11.4711 8.81256C11.4711 7.84248 11.1386 7.02491 10.4735 6.35985C9.80848 5.6948 8.98743 5.36227 8.01041 5.36227C7.03338 5.36227 6.21581 5.6948 5.5577 6.35985C4.89959 7.02491 4.57053 7.84248 4.57053 8.81256C4.57053 9.78264 4.89959 10.6002 5.5577 11.2653C6.21581 11.9303 7.03338 12.2629 8.01041 12.2629ZM8.01041 10.9296C7.40196 10.9296 6.89875 10.7258 6.50078 10.3184C6.10281 9.91091 5.90382 9.40771 5.90382 8.80875C5.90382 8.20979 6.10281 7.70785 6.50078 7.30294C6.89875 6.89802 7.40196 6.69556 8.01041 6.69556C8.61885 6.69556 9.12553 6.89929 9.53045 7.30675C9.93536 7.71421 10.1378 8.21741 10.1378 8.81637C10.1378 9.41533 9.93536 9.91727 9.53045 10.3222C9.12553 10.7271 8.61885 10.9296 8.01041 10.9296ZM1.67309 15.0834C1.22923 15.0834 0.853309 14.9294 0.545323 14.6214C0.237337 14.3134 0.0833435 13.9375 0.0833435 13.4936V4.15233C0.0833435 3.70847 0.237337 3.33255 0.545323 3.02456C0.853309 2.71657 1.22923 2.56258 1.67309 2.56258H4.13461L5.65545 0.916748H10.3347L11.8862 2.56258H14.3269C14.7707 2.56258 15.1467 2.71657 15.4547 3.02456C15.7626 3.33255 15.9166 3.70847 15.9166 4.15233V13.4936C15.9166 13.9375 15.7626 14.3134 15.4547 14.6214C15.1467 14.9294 14.7707 15.0834 14.3269 15.0834H1.67309ZM14.3269 13.7501C14.4017 13.7501 14.4631 13.726 14.5112 13.6779C14.5593 13.6299 14.5833 13.5684 14.5833 13.4936V4.15233C14.5833 4.07754 14.5593 4.0161 14.5112 3.96802C14.4631 3.91994 14.4017 3.89589 14.3269 3.89589H11.3285L9.77884 2.25006H6.24197L4.6923 3.89589H1.67309C1.5983 3.89589 1.53686 3.91994 1.48878 3.96802C1.4407 4.0161 1.41666 4.07754 1.41666 4.15233V13.4936C1.41666 13.5684 1.4407 13.6299 1.48878 13.6779C1.53686 13.726 1.5983 13.7501 1.67309 13.7501H14.3269Z" fill="#3D3D3D"/>
</svg>
