<svg width="16" height="16" viewBox="0 0 16 16" fill="none" xmlns="http://www.w3.org/2000/svg">
<path d="M9.41985 15.2741C9.20785 15.4856 8.9524 15.5914 8.6535 15.5914C8.3546 15.5914 8.09937 15.4856 7.88783 15.2741L0.741999 8.12825C0.640374 8.02243 0.56075 7.90109 0.503125 7.76423C0.4455 7.62737 0.416687 7.4907 0.416687 7.35423V1.50006C0.416687 1.20509 0.5235 0.950797 0.737125 0.737185C0.950736 0.52356 1.20503 0.416748 1.5 0.416748H7.35417C7.491 0.416748 7.62267 0.439901 7.74917 0.486206C7.87565 0.532498 7.99476 0.610345 8.10648 0.719748L15.258 7.86387C15.4749 8.08075 15.5846 8.33795 15.5873 8.63548C15.59 8.933 15.4855 9.18754 15.274 9.39908L9.41985 15.2741ZM8.65025 14.5001L14.508 8.64589L7.35775 1.50006H1.5V7.35423L8.65025 14.5001ZM3.49906 4.54171C3.78815 4.54171 4.03418 4.44053 4.23717 4.23816C4.44015 4.0358 4.54165 3.79008 4.54165 3.501C4.54165 3.21192 4.44046 2.96588 4.2381 2.76289C4.03574 2.55991 3.79002 2.45841 3.50094 2.45841C3.21185 2.45841 2.96582 2.5596 2.76283 2.76196C2.55985 2.96432 2.45835 3.21004 2.45835 3.49912C2.45835 3.78821 2.55953 4.03424 2.7619 4.23723C2.96426 4.44021 3.20998 4.54171 3.49906 4.54171Z" fill="#3D3D3D"/>
</svg>
