<svg width="15" height="16" viewBox="0 0 15 16" fill="none" xmlns="http://www.w3.org/2000/svg">
<path d="M2.14263 8.87169C2.23772 8.68579 2.30422 8.50977 2.34215 8.34365C2.38007 8.17751 2.39903 8.01431 2.39903 7.85406C2.39903 7.3968 2.27056 6.92618 2.01361 6.44221C1.75667 5.95824 1.62819 5.4983 1.62819 5.0624C1.62819 4.86155 1.65117 4.68581 1.69711 4.53517C1.74306 4.38452 1.80556 4.24883 1.88461 4.12811H2.60734C2.52829 4.24883 2.46579 4.38318 2.41984 4.53115C2.37391 4.67912 2.35094 4.8562 2.35094 5.0624C2.35094 5.49402 2.47942 5.94541 2.73636 6.41656C2.99331 6.88772 3.12178 7.36688 3.12178 7.85406C3.12178 8.04744 3.10148 8.22425 3.06088 8.3845C3.02029 8.54477 2.95511 8.70716 2.86536 8.87169H2.14263ZM6.89263 8.87169C6.98771 8.69968 7.05422 8.53755 7.09215 8.38531C7.13007 8.23306 7.14903 8.05598 7.14903 7.85406C7.14903 7.38291 7.02056 6.90882 6.76361 6.43179C6.50667 5.95477 6.37819 5.4983 6.37819 5.0624C6.37819 4.86155 6.40117 4.68581 6.44711 4.53517C6.49306 4.38452 6.55556 4.24883 6.63461 4.12811H7.35734C7.27829 4.24883 7.21579 4.38318 7.16984 4.53115C7.12391 4.67912 7.10094 4.8562 7.10094 5.0624C7.10094 5.49402 7.22942 5.94541 7.48636 6.41656C7.74331 6.88772 7.87178 7.36688 7.87178 7.85406C7.87178 8.06133 7.85148 8.24509 7.81088 8.40534C7.77028 8.5656 7.70511 8.72105 7.61536 8.87169H6.89263ZM4.51763 8.87169C4.61272 8.68579 4.67922 8.51672 4.71715 8.36448C4.75507 8.21223 4.77403 8.04209 4.77403 7.85406C4.77403 7.38291 4.64556 6.90882 4.38861 6.43179C4.13167 5.95477 4.00319 5.4983 4.00319 5.0624C4.00319 4.86155 4.02617 4.68581 4.07211 4.53517C4.11806 4.38452 4.18056 4.24883 4.25961 4.12811H4.98234C4.90329 4.24883 4.84079 4.38318 4.79484 4.53115C4.74891 4.67912 4.72594 4.8562 4.72594 5.0624C4.72594 5.49402 4.85442 5.94541 5.11136 6.41656C5.36831 6.88772 5.49678 7.36688 5.49678 7.85406C5.49678 8.06133 5.47648 8.24509 5.43588 8.40534C5.39529 8.5656 5.33011 8.72105 5.24036 8.87169H4.51763ZM5.39582 15.7915C4.01868 15.7915 2.86403 15.3666 1.93188 14.5167C0.999729 13.6668 0.425216 12.4935 0.208341 10.9967C0.185896 10.9166 0.204056 10.8485 0.262819 10.7924C0.321569 10.7363 0.400625 10.7083 0.499986 10.7083H9.4968L10.4583 2.02394C10.5224 1.49402 10.7476 1.05893 11.1338 0.718669C11.52 0.378391 11.9754 0.208252 12.5 0.208252C13.0662 0.208252 13.5481 0.406967 13.9455 0.804398C14.3429 1.20183 14.5416 1.68366 14.5416 2.2499C14.5416 2.41015 14.5435 2.55704 14.5473 2.69059C14.551 2.82413 14.5363 3.01643 14.5032 3.2675L13.4327 3.10725C13.4519 2.91709 13.461 2.7595 13.4599 2.6345C13.4589 2.5095 13.4583 2.3813 13.4583 2.2499C13.4583 1.98815 13.3641 1.76298 13.1755 1.5744C12.9869 1.38583 12.7617 1.29154 12.5 1.29154C12.2521 1.29154 12.0374 1.3714 11.8557 1.53113C11.6741 1.69086 11.5694 1.89466 11.5416 2.14252L10.5416 11.08C10.3942 12.4572 9.83358 13.5867 8.85976 14.4686C7.88594 15.3506 6.73129 15.7915 5.39582 15.7915ZM5.39582 14.7083C6.26976 14.7083 7.06277 14.4473 7.77484 13.9254C8.48692 13.4035 9.00375 12.6922 9.32532 11.7915H1.43747C1.77294 12.72 2.2911 13.4382 2.99197 13.9462C3.69281 14.4542 4.4941 14.7083 5.39582 14.7083Z" fill="#3D3D3D"/>
</svg>
