<svg width="18" height="12" viewBox="0 0 18 12" fill="none" xmlns="http://www.w3.org/2000/svg">
<path d="M3.54167 11.7915C2.80876 11.7915 2.20207 11.5365 1.72158 11.0263C1.2411 10.5161 0.993631 9.91705 0.979187 9.22906C0.979187 9.1233 0.984791 9.02154 0.995999 8.92377C1.00722 8.82602 1.02672 8.72159 1.0545 8.61048L2.64379 2.29427C2.80969 1.67816 3.14608 1.17646 3.65294 0.789169C4.15981 0.401891 4.72703 0.208252 5.3546 0.208252H12.674C13.3016 0.208252 13.8675 0.401891 14.3718 0.789169C14.8761 1.17646 15.2113 1.67805 15.3776 2.29394L16.9701 8.60802C16.9954 8.71543 17.0136 8.82301 17.0248 8.93077C17.036 9.03854 17.0416 9.14586 17.0416 9.25273C17.0416 9.94208 16.7961 10.5375 16.3049 11.0391C15.8137 11.5407 15.2037 11.7915 14.475 11.7915C13.9874 11.7915 13.5401 11.662 13.133 11.4029C12.726 11.1439 12.4126 10.7963 12.1929 10.3601L11.6473 9.268C11.5726 9.11491 11.4598 8.99722 11.3088 8.91494C11.1578 8.83268 10.9859 8.79154 10.7929 8.79154H7.22531C7.03237 8.79154 6.86024 8.83295 6.70892 8.91575C6.55761 8.99856 6.44524 9.11652 6.37179 9.26965L5.83652 10.3621C5.61644 10.7969 5.30008 11.1439 4.88744 11.4029C4.47478 11.662 4.02619 11.7915 3.54167 11.7915ZM3.59506 10.7083C3.84687 10.7083 4.08593 10.6428 4.31225 10.5119C4.53858 10.381 4.7251 10.173 4.87181 9.88773L5.39681 8.81771C5.56828 8.47006 5.81612 8.19824 6.14031 8.00225C6.46451 7.80625 6.82494 7.70825 7.2216 7.70825H10.7995C11.189 7.70825 11.5484 7.81064 11.8778 8.01542C12.2071 8.22021 12.4642 8.49015 12.649 8.82523L13.1699 9.88773C13.3023 10.1666 13.4853 10.373 13.7188 10.5071C13.9522 10.6412 14.1919 10.7083 14.438 10.7083C14.8105 10.7083 15.1549 10.5763 15.4712 10.3124C15.7874 10.0485 15.9429 9.70129 15.9375 9.27073C15.9375 9.20326 15.9362 9.13755 15.9335 9.07361C15.9308 9.00968 15.9226 8.9413 15.9087 8.86848L14.3318 2.58338C14.2335 2.19758 14.0323 1.88583 13.7282 1.64813C13.4242 1.4104 13.0703 1.29154 12.6667 1.29154H5.35417C4.95005 1.29154 4.59262 1.4104 4.28185 1.64813C3.97108 1.88583 3.77562 2.1954 3.6955 2.57681L2.10829 8.86173C2.08844 8.92608 2.07317 9.05467 2.06248 9.2475C2.06248 9.67966 2.22258 10.0312 2.54277 10.302C2.86298 10.5728 3.21374 10.7083 3.59506 10.7083ZM9.98958 5.15373C9.82025 5.15373 9.67068 5.08536 9.54087 4.94861C9.41107 4.81186 9.34617 4.65881 9.34617 4.48948C9.34617 4.32015 9.41003 4.17058 9.53775 4.04077C9.66547 3.91097 9.81956 3.84606 10 3.84606C10.1624 3.84606 10.312 3.90993 10.4487 4.03765C10.5855 4.16537 10.6538 4.31945 10.6538 4.4999C10.6538 4.66229 10.5855 4.81186 10.4487 4.94861C10.312 5.08536 10.1589 5.15373 9.98958 5.15373ZM11.5044 3.65373C11.3252 3.65373 11.1707 3.58536 11.0409 3.44861C10.9111 3.31186 10.8462 3.15881 10.8462 2.98948C10.8462 2.82015 10.9096 2.67058 11.0365 2.54077C11.1634 2.41097 11.3164 2.34606 11.4956 2.34606C11.6748 2.34606 11.8293 2.40993 11.9591 2.53765C12.0889 2.66537 12.1538 2.81945 12.1538 2.9999C12.1538 3.16229 12.0904 3.31186 11.9635 3.44861C11.8366 3.58536 11.6836 3.65373 11.5044 3.65373ZM11.5044 6.65373C11.3252 6.65373 11.1707 6.58536 11.0409 6.44861C10.9111 6.31186 10.8462 6.15881 10.8462 5.98948C10.8462 5.82015 10.9096 5.67058 11.0365 5.54077C11.1634 5.41097 11.3164 5.34607 11.4956 5.34607C11.6748 5.34607 11.8293 5.40993 11.9591 5.53765C12.0889 5.66537 12.1538 5.81945 12.1538 5.9999C12.1538 6.16229 12.0904 6.31186 11.9635 6.44861C11.8366 6.58536 11.6836 6.65373 11.5044 6.65373ZM13.0044 5.15373C12.8252 5.15373 12.6707 5.08536 12.5409 4.94861C12.4111 4.81186 12.3462 4.65881 12.3462 4.48948C12.3462 4.32015 12.4096 4.17058 12.5365 4.04077C12.6634 3.91097 12.8164 3.84606 12.9956 3.84606C13.1748 3.84606 13.3293 3.90993 13.4591 4.03765C13.5889 4.16537 13.6538 4.31945 13.6538 4.4999C13.6538 4.66229 13.5904 4.81186 13.4635 4.94861C13.3366 5.08536 13.1836 5.15373 13.0044 5.15373ZM6.49702 6.12169C6.38363 6.12169 6.2834 6.07746 6.19631 5.989C6.10924 5.90053 6.06571 5.8 6.06571 5.6874V4.93419H5.3125C5.1999 4.93419 5.09937 4.88966 5.0109 4.80061C4.92244 4.71155 4.87821 4.61032 4.87821 4.49692C4.87821 4.38353 4.92244 4.28329 5.0109 4.19621C5.09937 4.10914 5.1999 4.06561 5.3125 4.06561H6.06571V3.3124C6.06571 3.1998 6.11024 3.09927 6.19929 3.01079C6.28835 2.92234 6.38958 2.87811 6.50298 2.87811C6.61637 2.87811 6.7166 2.92234 6.80369 3.01079C6.89076 3.09927 6.93429 3.1998 6.93429 3.3124V4.06561H7.6875C7.8001 4.06561 7.90063 4.11013 7.9891 4.19919C8.07756 4.28825 8.12179 4.38947 8.12179 4.50288C8.12179 4.61627 8.07756 4.7165 7.9891 4.80359C7.90063 4.89066 7.8001 4.93419 7.6875 4.93419H6.93429V5.6874C6.93429 5.8 6.88976 5.90053 6.80071 5.989C6.71165 6.07746 6.61042 6.12169 6.49702 6.12169Z" fill="#3D3D3D"/>
</svg>
