<svg width="16" height="13" viewBox="0 0 16 13" fill="none" xmlns="http://www.w3.org/2000/svg">
<path d="M3.43274 11.5865H7.72755C7.78098 11.5865 7.82639 11.5678 7.86378 11.5304C7.90118 11.493 7.91988 11.4476 7.91988 11.3941V10.5384C7.91988 10.485 7.90118 10.4395 7.86378 10.4022C7.82639 10.3648 7.78098 10.3461 7.72755 10.3461H3.43274C3.37931 10.3461 3.3339 10.3648 3.29651 10.4022C3.2591 10.4395 3.2404 10.485 3.2404 10.5384V11.3941C3.2404 11.4476 3.2591 11.493 3.29651 11.5304C3.3339 11.5678 3.37931 11.5865 3.43274 11.5865ZM3.76707 5.22914H7.26369C7.38171 5.22914 7.48772 5.18312 7.58174 5.0911C7.67575 4.99907 7.72276 4.89437 7.72276 4.77699C7.72276 4.65963 7.6765 4.55394 7.58399 4.45993C7.49147 4.36592 7.38621 4.31891 7.26819 4.31891H3.77159C3.65358 4.31891 3.54756 4.36492 3.45355 4.45695C3.35953 4.54898 3.31253 4.65368 3.31253 4.77106C3.31253 4.88842 3.35878 4.9941 3.4513 5.08812C3.54381 5.18213 3.64907 5.22914 3.76707 5.22914ZM3.76707 3.45191H7.26369C7.38171 3.45191 7.48772 3.4059 7.58174 3.31387C7.67575 3.22184 7.72276 3.11714 7.72276 2.99976C7.72276 2.8824 7.6765 2.77672 7.58399 2.6827C7.49147 2.58869 7.38621 2.54168 7.26819 2.54168H3.77159C3.65358 2.54168 3.54756 2.58769 3.45355 2.67972C3.35953 2.77175 3.31253 2.87645 3.31253 2.99383C3.31253 3.11119 3.35878 3.21688 3.4513 3.31089C3.54381 3.4049 3.64907 3.45191 3.76707 3.45191ZM10.5833 6.16343V5.08012H11.3269C11.4017 5.08012 11.4631 5.05608 11.5112 5.00801C11.5593 4.95993 11.5833 4.89849 11.5833 4.8237V3.17628C11.5833 3.10149 11.5593 3.04006 11.5112 2.99197C11.4631 2.9439 11.4017 2.91987 11.3269 2.91987H10.5833V1.83656H11.3269C11.6953 1.83656 12.0107 1.96774 12.2731 2.2301C12.5354 2.49246 12.6666 2.80785 12.6666 3.17628V3.45835H15.2884C15.4419 3.45835 15.5705 3.50986 15.6743 3.61289C15.7781 3.71592 15.83 3.84358 15.83 3.99589C15.83 4.14819 15.7781 4.27723 15.6743 4.38299C15.5705 4.48876 15.4419 4.54164 15.2884 4.54164H12.6666V4.8237C12.6666 5.19213 12.5354 5.50753 12.2731 5.76989C12.0107 6.03225 11.6953 6.16343 11.3269 6.16343H10.5833ZM7.66344 9.26276H6.58013V6.41987H9.24357C9.31836 6.41987 9.3798 6.39583 9.42788 6.34774C9.47597 6.29966 9.50001 6.23822 9.50001 6.16343V1.83656C9.50001 1.76176 9.47597 1.70033 9.42788 1.65224C9.3798 1.60416 9.31836 1.58012 9.24357 1.58012H3.16028C2.74778 1.58012 2.39465 1.72699 2.1009 2.02074C1.80715 2.31449 1.66028 2.66762 1.66028 3.08012V4.91987C1.66028 5.33237 1.80715 5.68549 2.1009 5.97924C2.39465 6.27299 2.74778 6.41987 3.16028 6.41987H4.58013V9.26276H3.49684V7.50316H3.16028C2.44153 7.50316 1.83129 7.2523 1.32957 6.75058C0.827833 6.24884 0.576965 5.6386 0.576965 4.91987V3.08012C0.576965 2.36138 0.827833 1.75115 1.32957 1.24941C1.83129 0.747687 2.44153 0.496826 3.16028 0.496826H9.24357C9.612 0.496826 9.92739 0.628007 10.1898 0.890368C10.4521 1.15273 10.5833 1.46812 10.5833 1.83656V6.16343C10.5833 6.53186 10.4521 6.84726 10.1898 7.10962C9.92739 7.37198 9.612 7.50316 9.24357 7.50316H7.66344V9.26276ZM3.0369 12.6698C2.79251 12.6698 2.58478 12.5842 2.41372 12.4132C2.24265 12.2421 2.15711 12.0344 2.15711 11.79V10.1426C2.15711 9.84261 2.30167 9.62099 2.5908 9.4777C2.87992 9.33441 3.19529 9.26276 3.5369 9.26276H8.12338C8.36777 9.26276 8.5755 9.3483 8.74657 9.51937C8.91764 9.69044 9.00317 9.89817 9.00317 10.1426V11.79C9.00317 12.0344 8.91764 12.2421 8.74657 12.4132C8.5755 12.5842 8.36777 12.6698 8.12338 12.6698H3.0369ZM7.72755 11.5865H3.2404H7.91988H7.72755Z" fill="#3D3D3D"/>
</svg>
