<svg width="10" height="16" viewBox="0 0 10 16" fill="none" xmlns="http://www.w3.org/2000/svg">
<path d="M3.25644 8.95184V6.54801H4V8.95184H3.25644ZM4.62821 8.95184V7.04801H5.37179V8.95184H4.62821ZM6 8.95184V7.54801H6.74356V8.95184H6ZM3.3045 15.2467L2.49683 11.8397C1.86969 11.4401 1.36622 10.9072 0.986416 10.2411C0.606596 9.57497 0.416687 8.82791 0.416687 7.99992C0.416687 7.17194 0.610069 6.42488 0.996833 5.75874C1.38358 5.09261 1.89747 4.55976 2.5385 4.16019L3.3045 0.753174H6.6955L7.4615 4.16019C8.10253 4.55976 8.61642 5.09261 9.00317 5.75874C9.38993 6.42488 9.58331 7.17194 9.58331 7.99992C9.58331 8.82791 9.3934 9.57497 9.01358 10.2411C8.63378 10.9072 8.1303 11.4401 7.50317 11.8397L6.6955 15.2467H3.3045ZM5 11.4999C5.97222 11.4999 6.79861 11.1596 7.47917 10.4791C8.15972 9.79854 8.5 8.97215 8.5 7.99992C8.5 7.0277 8.15972 6.20131 7.47917 5.52076C6.79861 4.8402 5.97222 4.49992 5 4.49992C4.02778 4.49992 3.20139 4.8402 2.52083 5.52076C1.84028 6.20131 1.5 7.0277 1.5 7.99992C1.5 8.97215 1.84028 9.79854 2.52083 10.4791C3.20139 11.1596 4.02778 11.4999 5 11.4999ZM3.75481 3.61534C3.95459 3.5491 4.15999 3.50076 4.371 3.4703C4.582 3.43985 4.79167 3.42463 5 3.42463C5.20833 3.42463 5.41453 3.43985 5.61858 3.4703C5.82265 3.50076 6.02458 3.5491 6.22435 3.61534L5.8125 1.83649H4.1875L3.75481 3.61534ZM4.1875 14.1634H5.8125L6.26602 12.3845C6.06624 12.4507 5.86085 12.4991 5.64983 12.5295C5.43883 12.56 5.22222 12.5752 5 12.5752C4.77778 12.5752 4.56464 12.56 4.36058 12.5295C4.15651 12.4991 3.95459 12.4507 3.75481 12.3845L4.1875 14.1634ZM4.1875 14.1634H3.75481H6.26602H4.1875Z" fill="#3D3D3D"/>
</svg>
